# xmcd
#
# Track frame offsets: 
#        150
#        13127
#        27690
#        37349
#        47426
#        60359
#        71623
#        84434
#        96578
#        108783
#        124099
#        137615
#        147608
#        159691
#        170549
#        183576
#        196387
#        207490
#        221464
#        235422
#        246112
#        258553
#
# Disc length: 3619 seconds
#
# Revision: 0
# Processed by: cddbd v1.5.2PL0 Copyright (c) Steve Scherf et al.
# Submitted via: ExactAudioCopyFreeDBPlugin 1.0
#
DISCID=500e2116
DTITLE=Various Artist - Stax '68 - A Memphis Story [CD2]
DYEAR=2018
DGENRE=Soul
TTITLE0=Derek Martin - Soul Power
TTITLE1=Derek Martin - Sly Girl
TTITLE2=Linda Lyndell - Bring Your Love Back to Me
TTITLE3=Linda Lyndell - Here I Am
TTITLE4=Carla Thomas - A Dime a Dozen
TTITLE5=Carla Thomas - I Want You Back
TTITLE6=Kangaroo's - Groovy Day
TTITLE7=Kangaroo's - Every Man Needs a Woman
TTITLE8=Isaac Hayes - Precious Precious
TTITLE9=Isaac Hayes - Going to Chicago Blues
TTITLE10=The Mad Lads - Whatever Hurts You
TTITLE11=The Mad Lads - No Time Is Better Than Now
TTITLE12=Otis Redding - The Happy Song (Dum-Dum)
TTITLE13=Otis Redding - Open the Door
TTITLE14=Albert King - (I Love) Lucy
TTITLE15=Albert King - You're Gonna Need Me
TTITLE16=Johnnie Taylor - I Ain't Particular
TTITLE17=Johnnie Taylor - Where There's Smoke There's Fire
TTITLE18=Eddie Henderson Quintet - Georgy Girl
TTITLE19=Eddit Henderson Quintet - A Million or More Times
TTITLE20=Shirley Walton - Send Peace and Harmony Home
TTITLE21=Shirley Walton - The One You Can't Have All By Yourself
EXTD=
EXTT0=
EXTT1=
EXTT2=
EXTT3=
EXTT4=
EXTT5=
EXTT6=
EXTT7=
EXTT8=
EXTT9=
EXTT10=
EXTT11=
EXTT12=
EXTT13=
EXTT14=
EXTT15=
EXTT16=
EXTT17=
EXTT18=
EXTT19=
EXTT20=
EXTT21=
PLAYORDER=
